<svg xmlns="http://www.w3.org/2000/svg" width="400" height="400" viewBox="0 0 400 400">
  <g id="eyes-sunglasses" fill="#0a0a0a">
    <path d="M186.15 147H177.324C176.593 147 176 148.343 176 150V160C176 161.657 176.593 163 177.324 163H186.15C186.882 163 187.474 161.657 187.474 160V150C187.474 148.343 186.882 147 186.15 147Z" fill="#0A0A0A"/>
    <path d="M212.63 147H203.803C203.072 147 202.479 148.343 202.479 150V160C202.479 161.657 203.072 163 203.803 163H212.63C213.361 163 213.954 161.657 213.954 160V150C213.954 148.343 213.361 147 212.63 147Z" fill="#0A0A0A"/>
    <path d="M202.479 153H187.474V157H202.479V153Z" fill="#0A0A0A"/>
  </g>
</svg>