<svg xmlns="http://www.w3.org/2000/svg" width="400" height="400" viewBox="0 0 400 400">
  <g id="eyes-stressed" fill="#815224">
    <path d="M182.326 151.5C182.794 151.5 183.285 151.723 183.778 152.218C184.272 152.714 184.741 153.458 185.145 154.416C185.953 156.332 186.464 159.013 186.464 162C186.464 164.987 185.953 167.668 185.145 169.584C184.741 170.542 184.272 171.286 183.778 171.782C183.285 172.277 182.794 172.5 182.326 172.5C181.857 172.5 181.367 172.277 180.874 171.782C180.38 171.286 179.911 170.543 179.506 169.584C178.698 167.668 178.187 164.987 178.187 162C178.187 159.013 178.698 156.332 179.506 154.416C179.911 153.457 180.38 152.714 180.874 152.218C181.367 151.723 181.857 151.5 182.326 151.5Z" fill="#815224" stroke="#815224"/>
    <path d="M207.628 151.5C208.097 151.5 208.587 151.723 209.08 152.218C209.575 152.714 210.043 153.458 210.447 154.416C211.255 156.332 211.767 159.013 211.767 162C211.767 164.987 211.255 167.668 210.447 169.584C210.043 170.542 209.575 171.286 209.08 171.782C208.587 172.277 208.097 172.5 207.628 172.5C207.16 172.5 206.67 172.277 206.177 171.782C205.682 171.286 205.213 170.543 204.809 169.584C204.001 167.668 203.489 164.987 203.489 162C203.489 159.013 204.001 156.332 204.809 154.416C205.213 153.457 205.682 152.714 206.177 152.218C206.67 151.723 207.16 151.5 207.628 151.5Z" fill="#815224" stroke="#815224"/>
    <path d="M176 150L188.651 147Z" fill="#815224"/>
    <path d="M176 150L188.651 147" stroke="#815224" stroke-width="4" stroke-linecap="round"/>
    <path d="M201.302 147L213.954 150Z" fill="#815224"/>
    <path d="M201.302 147L213.954 150" stroke="#815224" stroke-width="4" stroke-linecap="round"/>
  </g>
</svg>
