<svg xmlns="http://www.w3.org/2000/svg" width="400" height="400" viewBox="0 0 400 400">
  <g id="mouth-grin" fill="none" stroke="#815224" stroke-width="6" stroke-linecap="round">
    <path d="M187.835 186.131C188.4 186.129 188.965 186.127 189.547 186.124C190.745 186.121 191.943 186.12 193.14 186.12C194.975 186.118 196.809 186.107 198.643 186.094C199.805 186.093 200.967 186.091 202.129 186.091C202.679 186.086 203.229 186.082 203.796 186.077C204.564 186.08 204.564 186.08 205.348 186.083C205.798 186.082 206.248 186.081 206.712 186.08C207.915 186.239 207.915 186.239 209.842 187.523C210.108 189.251 210.123 190.272 209.203 191.782C207.139 193.188 204.892 192.947 202.477 192.938C201.678 192.943 201.678 192.943 200.862 192.948C199.735 192.952 198.608 192.951 197.481 192.946C195.758 192.941 194.036 192.959 192.313 192.979C191.218 192.98 190.123 192.98 189.027 192.978C188.255 192.989 188.255 192.989 187.468 193C185.141 192.971 183.771 192.854 181.867 191.463C180.935 190.091 180.935 190.091 181.055 188.366C182.175 185.181 184.901 186.135 187.835 186.131Z" fill="#815224"/>
  </g>
</svg>
