<svg width="400" height="400" viewBox="0 0 400 400" fill="none" xmlns="http://www.w3.org/2000/svg">
<!-- Body / Fur -->
<path d="M194.05 100.12C194.788 100.123 195.526 100.127 196.287 100.131C211.802 100.351 225.527 106.538 236.422 117.572C237.972 119.256 239.51 120.952 240.996 122.693C243.221 125.232 244.976 126.368 248.343 126.67C248.942 126.685 249.542 126.701 250.16 126.717C257.067 127.219 263.462 129.886 268.371 134.824C272.469 139.742 274.557 145.045 274.341 151.465C273.483 158.847 270.416 165.066 265.016 170.168C259.375 174.57 253.682 175.606 246.645 175.719C246.632 176.312 246.619 176.905 246.605 177.516C245.298 186.217 235.394 194.863 229.266 200.686C227.97 201.792 227.97 201.792 228.115 203.195C229.418 204.049 230.727 204.842 232.069 205.631C241.773 211.642 248.762 220.424 253.674 230.671C260.745 228.06 267.678 223.668 271.164 216.806C273.122 211.948 273.753 207.703 271.845 202.756C270.25 199.492 267.782 197.15 264.537 195.527C261.339 195.286 259.426 195.456 256.869 197.444C254.878 199.435 254.313 201.81 253.574 204.458C253.035 205.751 253.035 205.751 251.118 207.029C248.882 207.268 248.882 207.268 246.645 207.029C244.938 205.274 244.441 203.944 244.409 201.518C244.565 197.114 246.203 193.605 249.139 190.343C253.534 186.268 257.618 185.632 263.516 185.75C270.203 186.309 274.813 189.288 279.233 194.249C284.017 200.836 283.772 209.406 283.067 217.252C281.64 225.262 276.784 231.723 270.288 236.422C266.257 238.857 261.045 241.534 256.23 241.534C256.249 241.887 256.269 242.24 256.289 242.604C256.501 246.661 256.652 250.717 256.778 254.777C256.84 256.735 256.918 258.691 257.002 260.649C257.12 263.447 257.202 266.245 257.263 269.046C257.293 270.164 257.335 271.281 257.388 272.398C257.798 281.32 257.798 281.32 255.633 283.902C253.951 284.94 252.343 285.608 250.479 286.262C249.433 286.774 248.392 287.295 247.357 287.827C246.336 288.307 245.313 288.784 244.289 289.257C243.776 289.498 243.264 289.739 242.735 289.987C241.274 290.671 239.807 291.344 238.339 292.013C237.612 292.346 236.886 292.68 236.137 293.024C223.021 298.256 209.393 299.837 195.407 299.92C194.684 299.928 194.684 299.928 193.945 299.936C186.818 299.993 180.134 299.235 173.163 297.764C172.574 297.64 171.985 297.516 171.379 297.389C159.154 294.653 143.507 289.921 134.185 281.15C133.788 279.467 133.788 279.467 133.792 277.531C133.786 276.803 133.78 276.076 133.774 275.326C133.785 274.54 133.795 273.755 133.806 272.946C133.806 272.132 133.806 271.319 133.806 270.481C133.809 268.755 133.819 267.032 133.839 265.307C133.864 263.12 133.867 260.934 133.862 258.747C133.86 256.637 133.873 254.528 133.886 252.419C133.886 251.645 133.886 250.871 133.886 250.074C133.982 243.052 135.222 236.365 138.139 229.952C138.332 229.522 138.525 229.093 138.724 228.65C140.572 224.683 142.885 221.255 145.687 217.891C146.395 217.028 146.395 217.028 147.117 216.147C150.722 211.964 154.713 208.617 159.103 205.311C160.507 204.231 161.748 203.215 162.939 201.917C162.53 201.554 162.121 201.19 161.699 200.816C159.973 199.276 158.261 197.722 156.55 196.166C155.947 195.64 155.947 195.64 155.331 195.103C150.572 190.725 146.973 184.849 144.928 178.754C144.29 177.019 144.29 177.019 143.131 175.719C140.916 175.045 138.861 174.875 136.554 174.713C130.992 174.074 126.227 170.973 122.482 166.908C117.588 160.481 116.281 153.62 116.933 145.687C118.341 139.465 122.489 134.1 127.713 130.531C131.14 128.469 134.112 127.071 138.181 127.152C144.141 127.463 144.141 127.463 149.179 124.748C151.002 122.709 152.495 120.495 153.994 118.211C159.894 110.18 170.663 104.14 180.192 101.597C180.598 101.484 181.004 101.371 181.422 101.255C185.632 100.193 189.723 100.098 194.05 100.12Z" fill="#815224"/>
<!-- Face -->
<path d="M187.061 130.072C190.114 131.869 192.612 134.032 194.888 136.741C195.152 136.502 195.415 136.262 195.687 136.015C202.889 129.633 208.792 127.761 218.328 128.282C223.867 128.852 229.051 131.836 232.588 136.102C235.437 140.783 236.537 144.635 236.542 150.04C236.549 150.548 236.557 151.056 236.565 151.579C236.581 158.034 234.021 162.586 229.673 167.252C226.652 169.589 222.732 170.643 219.169 171.885C219.802 172.952 219.802 172.952 220.447 174.042C222.696 179.101 222.614 185.708 221.236 191.024C220.643 192.408 219.985 193.625 219.169 194.888C218.616 195.877 218.616 195.877 218.051 196.885C213.589 202.586 206.988 206.693 199.84 208.067C191.851 208.866 184.935 207.486 178.412 202.496C173.091 197.916 169.246 191.999 168.515 184.879C168.365 180.487 168.968 177.585 171.186 173.777C171.989 172.577 171.989 172.577 171.885 171.246C171.476 171.183 171.066 171.121 170.644 171.056C164.623 170.015 161.188 168.304 157.558 163.284C153.836 157.295 152.895 150.831 154.371 143.922C156.364 138.071 160.901 133.382 166.184 130.311C166.589 130.114 166.995 129.916 167.412 129.712C167.869 129.482 168.326 129.251 168.797 129.014C174.417 127.215 181.768 127.556 187.061 130.072Z" fill="#FCF1E8"/>
<!-- Chest -->
<path d="M212.74 224.481C220.689 229.998 225.093 237.106 226.837 246.645C227.075 249.788 227.062 252.91 227.024 256.06C227.021 256.938 227.018 257.815 227.016 258.692C227.009 260.974 226.99 263.255 226.969 265.537C226.949 267.876 226.94 270.215 226.931 272.554C226.91 277.123 226.878 281.693 226.837 286.262C224.94 286.781 223.041 287.296 221.141 287.807C220.612 287.952 220.083 288.098 219.539 288.247C203.866 292.442 187.211 291.433 171.563 287.807C170.916 287.658 170.269 287.51 169.602 287.357C168.02 286.993 166.438 286.628 164.856 286.262C164.797 280.718 164.751 275.174 164.724 269.63C164.711 267.055 164.693 264.481 164.663 261.906C164.635 259.416 164.62 256.926 164.614 254.436C164.609 253.491 164.6 252.546 164.586 251.602C164.459 242.6 166.316 235.471 172.457 228.697C183.393 218.125 199.762 216.652 212.74 224.481Z" fill="#FCF1E8"/>
<!-- Ear (L) -->
<path d="M141.853 136.741C141.722 137.197 141.591 137.652 141.456 138.121C141.284 138.733 141.112 139.345 140.935 139.976C140.764 140.576 140.594 141.177 140.418 141.796C139.369 146.094 139.198 150.235 139.217 154.633C139.215 155.184 139.212 155.736 139.21 156.305C139.215 159.437 139.408 162.408 139.936 165.495C136.125 165.478 133.491 164.965 130.718 162.25C127.523 158.349 125.937 154.379 126.216 149.309C127.124 144.183 130.057 141.222 134.13 138.219C136.703 136.6 138.884 136.685 141.853 136.741Z" fill="#FCF1E8"/>
<!-- Ear (R) -->
<path d="M248.562 136.741C251.998 136.383 253.975 136.902 256.829 138.853C260.519 141.886 263.539 144.842 264.05 149.688C264.203 154.704 263.032 158.338 259.824 162.22C256.768 164.694 254.443 165.778 250.479 165.495C250.581 164.806 250.682 164.116 250.786 163.406C251.882 154.551 252.19 145.034 248.562 136.741Z" fill="#FCF1E8"/>
<!-- Mouth -->
<path d="M187.695 186.474C188.257 186.472 188.818 186.47 189.397 186.468C190.589 186.464 191.78 186.463 192.972 186.463C194.796 186.462 196.62 186.45 198.445 186.438C199.601 186.436 200.756 186.435 201.912 186.434C202.459 186.43 203.006 186.425 203.57 186.42C204.334 186.423 204.334 186.423 205.114 186.426C205.562 186.425 206.01 186.424 206.471 186.424C207.668 186.581 207.668 186.581 209.585 187.859C209.849 189.58 209.864 190.596 208.949 192.098C206.896 193.497 204.661 193.257 202.259 193.248C201.464 193.253 201.464 193.253 200.652 193.258C199.531 193.263 198.41 193.262 197.289 193.256C195.575 193.251 193.863 193.269 192.149 193.29C191.059 193.291 189.97 193.29 188.88 193.288C188.112 193.299 188.112 193.299 187.329 193.31C185.014 193.281 183.652 193.165 181.758 191.781C180.831 190.415 180.831 190.415 180.95 188.698C182.064 185.529 184.775 186.478 187.695 186.474Z" fill="#815224"/>
<!-- Eye (L) -->
<path d="M180.192 143.77C182.182 144.857 183.635 146.183 184.665 148.243C184.808 151.418 184.462 153.459 182.428 155.95C180.314 157.413 178.329 157.643 175.796 157.511C173.627 156.995 172.581 155.704 171.246 153.994C171.035 153.783 170.824 153.572 170.607 153.355C170.197 150.194 170.144 147.737 171.805 144.968C174.621 143.279 176.988 143.115 180.192 143.77Z" fill="#815224"/>
<!-- Eye (R) -->
<path d="M215.335 143.131C217.702 144.426 218.948 145.355 220.447 147.604C220.907 150.461 220.819 152.707 219.369 155.232C217.046 157.304 215.582 157.827 212.46 157.827C209.467 156.972 208.781 155.88 207.029 153.355C205.98 151.257 205.886 149.214 206.39 146.965C208.686 143.721 211.368 142.41 215.335 143.131Z" fill="#815224"/>
</svg>
