<svg width="400" height="400" viewBox="0 0 400 400" fill="none" xmlns="http://www.w3.org/2000/svg">
  <g id="base-fur">
    <path d="M194.05 100.12C194.788 100.123 195.526 100.127 196.287 100.131C211.802 100.351 225.527 106.538 236.422 117.572C237.972 119.256 239.51 120.952 240.996 122.693C243.221 125.232 244.976 126.368 248.343 126.67C248.942 126.685 249.542 126.701 250.16 126.717C257.067 127.219 263.462 129.886 268.371 134.824C272.469 139.742 274.557 145.045 274.341 151.465C273.483 158.847 270.416 165.066 265.016 170.168C259.375 174.57 253.682 175.606 246.645 175.719C246.632 176.312 246.619 176.905 246.605 177.516C245.298 186.217 235.394 194.863 229.266 200.686C227.97 201.792 227.97 201.792 228.115 203.195C229.418 204.049 230.727 204.842 232.069 205.631C241.773 211.642 248.762 220.424 253.674 230.671C260.745 228.06 267.678 223.668 271.164 216.806C273.122 211.948 273.753 207.703 271.845 202.756C270.25 199.492 267.782 197.15 264.537 195.527C261.339 195.286 259.426 195.456 256.869 197.444C254.878 199.435 254.313 201.81 253.574 204.458C253.035 205.751 253.035 205.751 251.118 207.029C248.882 207.268 248.882 207.268 246.645 207.029C244.938 205.274 244.441 203.944 244.409 201.518C244.565 197.114 246.203 193.605 249.139 190.343C253.534 186.268 257.618 185.632 263.516 185.75C270.203 186.309 274.813 189.288 279.233 194.249C284.017 200.836 283.772 209.406 283.067 217.252C281.64 225.262 276.784 231.723 270.288 236.422C266.257 238.857 261.045 241.534 256.23 241.534C256.249 241.887 256.269 242.24 256.289 242.604C256.501 246.661 256.652 250.717 256.778 254.777C256.84 256.735 256.918 258.691 257.002 260.649C257.12 263.447 257.202 266.245 257.263 269.046C257.293 270.164 257.335 271.281 257.388 272.398C257.798 281.32 257.798 281.32 255.633 283.902C253.951 284.94 252.343 285.608 250.479 286.262C249.433 286.774 248.392 287.295 247.357 287.827C246.336 288.307 245.313 288.784 244.289 289.257C243.776 289.498 243.264 289.739 242.735 289.987C241.274 290.671 239.807 291.344 238.339 292.013C237.612 292.346 236.886 292.68 236.137 293.024C223.021 298.256 209.393 299.837 195.407 299.92C194.684 299.928 194.684 299.928 193.945 299.936C186.818 299.993 180.134 299.235 173.163 297.764C172.574 297.64 171.985 297.516 171.379 297.389C159.154 294.653 143.507 289.921 134.185 281.15C133.788 279.467 133.788 279.467 133.792 277.531C133.786 276.803 133.78 276.076 133.774 275.326C133.785 274.54 133.795 273.755 133.806 272.946C133.806 272.132 133.806 271.319 133.806 270.481C133.809 268.755 133.819 267.032 133.839 265.307C133.864 263.12 133.867 260.934 133.862 258.747C133.86 256.637 133.873 254.528 133.886 252.419C133.886 251.645 133.886 250.871 133.886 250.074C133.982 243.052 135.222 236.365 138.139 229.952C138.332 229.522 138.525 229.093 138.724 228.65C140.572 224.683 142.885 221.255 145.687 217.891C146.395 217.028 146.395 217.028 147.117 216.147C150.722 211.964 154.713 208.617 159.103 205.311C160.507 204.231 161.748 203.215 162.939 201.917C162.53 201.554 162.121 201.19 161.699 200.816C159.973 199.276 158.261 197.722 156.55 196.166C155.947 195.64 155.947 195.64 155.331 195.103C150.572 190.725 146.973 184.849 144.928 178.754C144.29 177.019 144.29 177.019 143.131 175.719C140.916 175.045 138.861 174.875 136.554 174.713C130.992 174.074 126.227 170.973 122.482 166.908C117.588 160.481 116.281 153.62 116.933 145.687C118.341 139.465 122.489 134.1 127.713 130.531C131.14 128.469 134.112 127.071 138.181 127.152C144.141 127.463 144.141 127.463 149.179 124.748C151.002 122.709 152.495 120.495 153.994 118.211C159.894 110.18 170.663 104.14 180.192 101.597C180.598 101.484 181.004 101.371 181.422 101.255C185.632 100.193 189.723 100.098 194.05 100.12Z" fill="#815224"/>
  </g>
</svg>