<svg width="400" height="400" viewBox="0 0 400 400" fill="none" xmlns="http://www.w3.org/2000/svg">
  <g id="base-face">
    <path d="M187.061 130.072C190.114 131.869 192.612 134.032 194.888 136.741C195.152 136.502 195.415 136.262 195.687 136.015C202.889 129.633 208.792 127.761 218.328 128.282C223.867 128.852 229.051 131.836 232.588 136.102C235.437 140.783 236.537 144.635 236.542 150.04C236.549 150.548 236.557 151.056 236.565 151.579C236.581 158.034 234.021 162.586 229.673 167.252C226.652 169.589 222.732 170.643 219.169 171.885C219.802 172.952 219.802 172.952 220.447 174.042C222.696 179.101 222.614 185.708 221.236 191.024C220.643 192.408 219.985 193.625 219.169 194.888C218.616 195.877 218.616 195.877 218.051 196.885C213.589 202.586 206.988 206.693 199.84 208.067C191.851 208.866 184.935 207.486 178.412 202.496C173.091 197.916 169.246 191.999 168.515 184.879C168.365 180.487 168.968 177.585 171.186 173.777C171.989 172.577 171.989 172.577 171.885 171.246C171.476 171.183 171.066 171.121 170.644 171.056C164.623 170.015 161.188 168.304 157.558 163.284C153.836 157.295 152.895 150.831 154.371 143.922C156.364 138.071 160.901 133.382 166.184 130.311C166.589 130.114 166.995 129.916 167.412 129.712C167.869 129.482 168.326 129.251 168.797 129.014C174.417 127.215 181.768 127.556 187.061 130.072Z" fill="#FCF1E8"/>
  </g>
</svg>