<svg width="400" height="400" viewBox="0 0 400 400" fill="none" xmlns="http://www.w3.org/2000/svg">
  <g id="base-chest">
    <path d="M212.74 224.481C220.689 229.998 225.093 237.106 226.837 246.645C227.075 249.788 227.062 252.91 227.024 256.06C227.021 256.938 227.018 257.815 227.016 258.692C227.009 260.974 226.99 263.255 226.969 265.537C226.949 267.876 226.94 270.215 226.931 272.554C226.91 277.123 226.878 281.693 226.837 286.262C224.94 286.781 223.041 287.296 221.141 287.807C220.612 287.952 220.083 288.098 219.539 288.247C203.866 292.442 187.211 291.433 171.563 287.807C170.916 287.658 170.269 287.51 169.602 287.357C168.02 286.993 166.438 286.628 164.856 286.262C164.797 280.718 164.751 275.174 164.724 269.63C164.711 267.055 164.693 264.481 164.663 261.906C164.635 259.416 164.62 256.926 164.614 254.436C164.609 253.491 164.6 252.546 164.586 251.602C164.459 242.6 166.316 235.471 172.457 228.697C183.393 218.125 199.762 216.652 212.74 224.481Z" fill="#FCF1E8"/>
  </g>
</svg>