<svg width="400" height="400" viewBox="0 0 400 400" fill="none" xmlns="http://www.w3.org/2000/svg">
  <g id="base-ears">
    <!-- Ear (L) -->
    <path d="M141.853 136.741C141.722 137.197 141.591 137.652 141.456 138.121C141.284 138.733 141.112 139.345 140.935 139.976C140.764 140.576 140.594 141.177 140.418 141.796C139.369 146.094 139.198 150.235 139.217 154.633C139.215 155.184 139.212 155.736 139.21 156.305C139.215 159.437 139.408 162.408 139.936 165.495C136.125 165.478 133.491 164.965 130.718 162.25C127.523 158.349 125.937 154.379 126.216 149.309C127.124 144.183 130.057 141.222 134.13 138.219C136.703 136.6 138.884 136.685 141.853 136.741Z" fill="#FCF1E8"/>
    <!-- Ear (R) -->
    <path d="M248.562 136.741C251.998 136.383 253.975 136.902 256.829 138.853C260.519 141.886 263.539 144.842 264.05 149.688C264.203 154.704 263.032 158.338 259.824 162.22C256.768 164.694 254.443 165.778 250.479 165.495C250.581 164.806 250.682 164.116 250.786 163.406C251.882 154.551 252.19 145.034 248.562 136.741Z" fill="#FCF1E8"/>
  </g>
</svg>