<svg width="400" height="400" viewBox="0 0 400 400" fill="none" xmlns="http://www.w3.org/2000/svg">
  <g id="default-mouth">
    <path d="M187.695 186.474C188.257 186.472 188.818 186.47 189.397 186.468C190.589 186.464 191.78 186.463 192.972 186.463C194.796 186.462 196.62 186.45 198.445 186.438C199.601 186.436 200.756 186.435 201.912 186.434C202.459 186.43 203.006 186.425 203.57 186.42C204.334 186.423 204.334 186.423 205.114 186.426C205.562 186.425 206.01 186.424 206.471 186.424C207.668 186.581 207.668 186.581 209.585 187.859C209.849 189.58 209.864 190.596 208.949 192.098C206.896 193.497 204.661 193.257 202.259 193.248C201.464 193.253 201.464 193.253 200.652 193.258C199.531 193.263 198.41 193.262 197.289 193.256C195.575 193.251 193.863 193.269 192.149 193.29C191.059 193.291 189.97 193.29 188.88 193.288C188.112 193.299 188.112 193.299 187.329 193.31C185.014 193.281 183.652 193.165 181.758 191.781C180.831 190.415 180.831 190.415 180.95 188.698C182.064 185.529 184.775 186.478 187.695 186.474Z" fill="#815224"/>
  </g>
</svg>