<svg width="400" height="400" viewBox="0 0 400 400" fill="none" xmlns="http://www.w3.org/2000/svg">
  <g id="default-eyes">
    <!-- Eye (L) -->
    <path d="M180.192 143.77C182.182 144.857 183.635 146.183 184.665 148.243C184.808 151.418 184.462 153.459 182.428 155.95C180.314 157.413 178.329 157.643 175.796 157.511C173.627 156.995 172.581 155.704 171.246 153.994C171.035 153.783 170.824 153.572 170.607 153.355C170.197 150.194 170.144 147.737 171.805 144.968C174.621 143.279 176.988 143.115 180.192 143.77Z" fill="#815224"/>
    <!-- Eye (R) -->
    <path d="M215.335 143.131C217.702 144.426 218.948 145.355 220.447 147.604C220.907 150.461 220.819 152.707 219.369 155.232C217.046 157.304 215.582 157.827 212.46 157.827C209.467 156.972 208.781 155.88 207.029 153.355C205.98 151.257 205.886 149.214 206.39 146.965C208.686 143.721 211.368 142.41 215.335 143.131Z" fill="#815224"/>
  </g>
</svg>